<?xml version="1.0" encoding="UTF-8" standalone="no"?>
<svg width="170px" height="170px" viewBox="0 0 170 170" version="1.1" xmlns="http://www.w3.org/2000/svg" xmlns:xlink="http://www.w3.org/1999/xlink">
    <!-- Generator: Sketch 40.1 (33804) - http://www.bohemiancoding.com/sketch -->
    <title>SW</title>
    <desc>Created with Sketch.</desc>
    <defs>
        <rect id="path-1" x="0" y="0" width="150" height="150"></rect>
        <filter x="-50%" y="-50%" width="200%" height="200%" filterUnits="objectBoundingBox" id="filter-2">
            <feOffset dx="0" dy="2" in="SourceAlpha" result="shadowOffsetOuter1"></feOffset>
            <feGaussianBlur stdDeviation="5" in="shadowOffsetOuter1" result="shadowBlurOuter1"></feGaussianBlur>
            <feColorMatrix values="0 0 0 0 0   0 0 0 0 0   0 0 0 0 0  0 0 0 0.193387681 0" type="matrix" in="shadowBlurOuter1"></feColorMatrix>
        </filter>
    </defs>
    <g id="Page-1" stroke="none" stroke-width="1" fill="none" fill-rule="evenodd">
        <g id="SW" transform="translate(10.000000, 8.000000)">
            <g id="Rectangle">
                <use fill="black" fill-opacity="1" filter="url(#filter-2)" xlink:href="#path-1"></use>
                <use fill="#71F2FF" fill-rule="evenodd" xlink:href="#path-1"></use>
            </g>
            <path d="M33.76125,78.5175 C33.76125,79.7550062 33.5206274,80.8618701 33.039375,81.838125 C32.5581226,82.8143799 31.918754,83.6393716 31.12125,84.313125 C30.323746,84.9868784 29.3818804,85.4956233 28.295625,85.839375 C27.2093696,86.1831267 26.0750059,86.355 24.8925,86.355 C23.0774909,86.355 21.4206325,86.0318782 19.921875,85.385625 C18.4231175,84.7393718 17.1787549,83.8662555 16.18875,82.76625 L16.89,82.1475 C17.9350052,83.2750056 19.1518681,84.1206222 20.540625,84.684375 C21.9293819,85.2481278 23.3662426,85.53 24.85125,85.53 C25.9237554,85.53 26.9412452,85.3718766 27.90375,85.055625 C28.8662548,84.7393734 29.7187463,84.285628 30.46125,83.694375 C31.2037537,83.103122 31.7881229,82.3743793 32.214375,81.508125 C32.6406271,80.6418707 32.85375,79.6450056 32.85375,78.5175 C32.85375,77.3899944 32.6200023,76.4412539 32.1525,75.67125 C31.6849977,74.9012461 31.0800037,74.2412528 30.3375,73.69125 C29.5949963,73.1412472 28.7493797,72.6806269 27.800625,72.309375 C26.8518703,71.9381231 25.8962548,71.6012515 24.93375,71.29875 C23.7237439,70.9137481 22.61688,70.5081271 21.613125,70.081875 C20.60937,69.6556229 19.7431286,69.1331281 19.014375,68.514375 C18.2856214,67.8956219 17.721877,67.1531293 17.323125,66.286875 C16.924373,65.4206207 16.725,64.3687562 16.725,63.13125 C16.725,61.9212439 16.9656226,60.8418797 17.446875,59.893125 C17.9281274,58.9443703 18.5812459,58.1468782 19.40625,57.500625 C20.2312541,56.8543718 21.1868696,56.3593767 22.273125,56.015625 C23.3593804,55.6718733 24.5074939,55.5 25.7175,55.5 C27.2025074,55.5 28.6118683,55.7818722 29.945625,56.345625 C31.2793817,56.9093778 32.3724957,57.7137448 33.225,58.75875 L32.52375,59.3775 C31.7537461,58.4149952 30.770631,57.6656277 29.574375,57.129375 C28.378119,56.5931223 27.078757,56.325 25.67625,56.325 C24.686245,56.325 23.7168797,56.4624986 22.768125,56.7375 C21.8193703,57.0125014 20.9600038,57.4318722 20.19,57.995625 C19.4199961,58.5593778 18.8012523,59.2674957 18.33375,60.12 C17.8662477,60.9725043 17.6325,61.9762442 17.6325,63.13125 C17.6325,64.2587556 17.8387479,65.2143711 18.25125,65.998125 C18.6637521,66.7818789 19.2137466,67.4487472 19.90125,67.99875 C20.5887534,68.5487527 21.3656207,69.0024982 22.231875,69.36 C23.0981293,69.7175018 23.9849955,70.0474985 24.8925,70.35 C26.1300062,70.7625021 27.2849946,71.1818729 28.3575,71.608125 C29.4300054,72.0343771 30.3718709,72.549997 31.183125,73.155 C31.9943791,73.760003 32.6268727,74.4956207 33.080625,75.361875 C33.5343773,76.2281293 33.76125,77.2799938 33.76125,78.5175 L33.76125,78.5175 Z M40.19625,75.83625 C40.19625,76.9912558 40.3681233,78.1324944 40.711875,79.26 C41.0556267,80.3875056 41.5781215,81.3981205 42.279375,82.291875 C42.9806285,83.1856295 43.8674946,83.9074973 44.94,84.4575 C46.0125054,85.0075028 47.2774927,85.2825 48.735,85.2825 C50.2200074,85.2825 51.5399942,84.986878 52.695,84.395625 C53.8500058,83.804372 54.8537457,82.9450056 55.70625,81.8175 L56.36625,82.395 C55.4312453,83.605006 54.3381313,84.5262468 53.086875,85.15875 C51.8356187,85.7912532 50.3850082,86.1075 48.735,86.1075 C47.332493,86.1075 46.0537558,85.8531275 44.89875,85.344375 C43.7437442,84.8356225 42.7468792,84.1275045 41.908125,83.22 C41.0693708,82.3124955 40.4231273,81.2262563 39.969375,79.96125 C39.5156227,78.6962437 39.28875,77.3212574 39.28875,75.83625 C39.28875,74.4062429 39.5224977,73.0862561 39.99,71.87625 C40.4575023,70.6662439 41.0968709,69.6212544 41.908125,68.74125 C42.7193791,67.8612456 43.6749945,67.1806274 44.775,66.699375 C45.8750055,66.2181226 47.0574937,65.9775 48.3225,65.9775 C49.8075074,65.9775 51.0999945,66.2387474 52.2,66.76125 C53.3000055,67.2837526 54.2143714,67.9712457 54.943125,68.82375 C55.6718786,69.6762543 56.2149982,70.6456196 56.5725,71.731875 C56.9300018,72.8181304 57.10875,73.9249944 57.10875,75.0525 L57.10875,75.83625 L40.19625,75.83625 Z M56.2425,75.0525 C56.2149999,73.8149938 56.001877,72.6875051 55.603125,71.67 C55.204373,70.6524949 54.6612534,69.7793786 53.97375,69.050625 C53.2862466,68.3218714 52.4612548,67.758127 51.49875,67.359375 C50.5362452,66.960623 49.4637559,66.76125 48.28125,66.76125 C46.8512429,66.76125 45.6275051,67.056872 44.61,67.648125 C43.5924949,68.239378 42.7606282,68.9681207 42.114375,69.834375 C41.4681218,70.7006293 40.9937515,71.6081203 40.69125,72.556875 C40.3887485,73.5056297 40.2375,74.3374964 40.2375,75.0525 L56.2425,75.0525 Z M64.94625,71.54625 C65.4962527,69.5662401 66.3762439,68.1431293 67.58625,67.276875 C68.796256,66.4106207 70.102493,65.9775 71.505,65.9775 L71.87625,65.9775 C71.9862505,65.9775 72.1099993,65.9912499 72.2475,66.01875 L72.2475,66.8025 C72.1374994,66.7749999 72.0343755,66.76125 71.938125,66.76125 L71.71125,66.76125 C70.5012439,66.76125 69.4700043,67.0293723 68.6175,67.565625 C67.7649957,68.1018777 67.0637527,68.8031207 66.51375,69.669375 C65.9637472,70.5356293 65.5581263,71.4981197 65.296875,72.556875 C65.0356237,73.6156303 64.905,74.6674948 64.905,75.7125 L64.905,85.53 L63.9975,85.53 L63.9975,71.34 C63.9975,71.0374985 63.9906251,70.6662522 63.976875,70.22625 C63.9631249,69.7862478 63.9493751,69.3393773 63.935625,68.885625 C63.9218749,68.4318727 63.9012501,67.9987521 63.87375,67.58625 C63.8462499,67.1737479 63.8187501,66.8300014 63.79125,66.555 L64.69875,66.555 C64.7262501,66.8300014 64.7468749,67.1737479 64.760625,67.58625 C64.7743751,67.9987521 64.7881249,68.4456226 64.801875,68.926875 C64.8156251,69.4081274 64.8293749,69.8756227 64.843125,70.329375 C64.8568751,70.7831273 64.86375,71.1887482 64.86375,71.54625 L64.94625,71.54625 Z M82.395,85.53 L81.19875,85.53 L73.7325,66.555 L74.7225,66.555 L81.77625,84.6225 L81.85875,84.6225 L88.665,66.555 L89.655,66.555 L82.395,85.53 Z M95.30625,59.41875 C95.0587488,59.41875 94.838751,59.322501 94.64625,59.13 C94.453749,58.937499 94.3575,58.6762516 94.3575,58.34625 C94.3575,58.0437485 94.453749,57.796251 94.64625,57.60375 C94.838751,57.411249 95.0587488,57.315 95.30625,57.315 C95.5537512,57.315 95.773749,57.411249 95.96625,57.60375 C96.158751,57.796251 96.255,58.0437485 96.255,58.34625 C96.255,58.6762516 96.151876,58.937499 95.945625,59.13 C95.739374,59.322501 95.5262511,59.41875 95.30625,59.41875 L95.30625,59.41875 Z M94.8525,85.53 L94.8525,66.555 L95.76,66.555 L95.76,85.53 L94.8525,85.53 Z M117.705,69.1125 C116.989996,68.3699963 116.151255,67.7925021 115.18875,67.38 C114.226245,66.9674979 113.222505,66.76125 112.1775,66.76125 C110.829993,66.76125 109.620005,67.0156225 108.5475,67.524375 C107.474995,68.0331275 106.560629,68.7137457 105.804375,69.56625 C105.048121,70.4187543 104.463752,71.4087444 104.05125,72.53625 C103.638748,73.6637556 103.4325,74.8462438 103.4325,76.08375 C103.4325,77.3212562 103.638748,78.5037444 104.05125,79.63125 C104.463752,80.7587556 105.048121,81.7418708 105.804375,82.580625 C106.560629,83.4193792 107.474995,84.0862475 108.5475,84.58125 C109.620005,85.0762525 110.829993,85.32375 112.1775,85.32375 C113.222505,85.32375 114.24687,85.1450018 115.250625,84.7875 C116.25438,84.4299982 117.127496,83.8937536 117.87,83.17875 L118.48875,83.75625 C117.663746,84.5812541 116.694381,85.1793731 115.580625,85.550625 C114.466869,85.9218769 113.332506,86.1075 112.1775,86.1075 C110.774993,86.1075 109.489381,85.8600025 108.320625,85.365 C107.151869,84.8699975 106.134379,84.1825044 105.268125,83.3025 C104.401871,82.4224956 103.728127,81.3637562 103.246875,80.12625 C102.765623,78.8887438 102.525,77.5412573 102.525,76.08375 C102.525,74.6262427 102.765623,73.2787562 103.246875,72.04125 C103.728127,70.8037438 104.401871,69.7381295 105.268125,68.844375 C106.134379,67.9506205 107.151869,67.2493775 108.320625,66.740625 C109.489381,66.2318725 110.774993,65.9775 112.1775,65.9775 C113.387506,65.9775 114.53562,66.1974978 115.621875,66.6375 C116.70813,67.0775022 117.636246,67.696246 118.40625,68.49375 L117.705,69.1125 Z M123.2325,75.83625 C123.2325,76.9912558 123.404373,78.1324944 123.748125,79.26 C124.091877,80.3875056 124.614371,81.3981205 125.315625,82.291875 C126.016879,83.1856295 126.903745,83.9074973 127.97625,84.4575 C129.048755,85.0075028 130.313743,85.2825 131.77125,85.2825 C133.256257,85.2825 134.576244,84.986878 135.73125,84.395625 C136.886256,83.804372 137.889996,82.9450056 138.7425,81.8175 L139.4025,82.395 C138.467495,83.605006 137.374381,84.5262468 136.123125,85.15875 C134.871869,85.7912532 133.421258,86.1075 131.77125,86.1075 C130.368743,86.1075 129.090006,85.8531275 127.935,85.344375 C126.779994,84.8356225 125.783129,84.1275045 124.944375,83.22 C124.105621,82.3124955 123.459377,81.2262563 123.005625,79.96125 C122.551873,78.6962437 122.325,77.3212574 122.325,75.83625 C122.325,74.4062429 122.558748,73.0862561 123.02625,71.87625 C123.493752,70.6662439 124.133121,69.6212544 124.944375,68.74125 C125.755629,67.8612456 126.711244,67.1806274 127.81125,66.699375 C128.911255,66.2181226 130.093744,65.9775 131.35875,65.9775 C132.843757,65.9775 134.136245,66.2387474 135.23625,66.76125 C136.336256,67.2837526 137.250621,67.9712457 137.979375,68.82375 C138.708129,69.6762543 139.251248,70.6456196 139.60875,71.731875 C139.966252,72.8181304 140.145,73.9249944 140.145,75.0525 L140.145,75.83625 L123.2325,75.83625 Z M139.27875,75.0525 C139.25125,73.8149938 139.038127,72.6875051 138.639375,71.67 C138.240623,70.6524949 137.697503,69.7793786 137.01,69.050625 C136.322497,68.3218714 135.497505,67.758127 134.535,67.359375 C133.572495,66.960623 132.500006,66.76125 131.3175,66.76125 C129.887493,66.76125 128.663755,67.056872 127.64625,67.648125 C126.628745,68.239378 125.796878,68.9681207 125.150625,69.834375 C124.504372,70.7006293 124.030002,71.6081203 123.7275,72.556875 C123.424998,73.5056297 123.27375,74.3374964 123.27375,75.0525 L139.27875,75.0525 Z M42.63,141.78 L41.2275,141.78 L32.77125,113.44125 L32.68875,113.44125 L24.3975,141.78 L22.995,141.78 L14.25,112.575 L15.19875,112.575 L23.61375,140.955 L23.7375,140.955 L32.02875,112.575 L33.43125,112.575 L41.8875,140.955 L42.01125,140.955 L50.42625,112.575 L51.375,112.575 L42.63,141.78 Z M73.44375,132.25125 C73.44375,133.736257 73.2031274,135.097494 72.721875,136.335 C72.2406226,137.572506 71.5600044,138.638121 70.68,139.531875 C69.7999956,140.425629 68.7481311,141.119998 67.524375,141.615 C66.3006189,142.110002 64.9600073,142.3575 63.5025,142.3575 C62.0449927,142.3575 60.7112561,142.110002 59.50125,141.615 C58.2912439,141.119998 57.2462544,140.425629 56.36625,139.531875 C55.4862456,138.638121 54.8056274,137.572506 54.324375,136.335 C53.8431226,135.097494 53.6025,133.736257 53.6025,132.25125 C53.6025,130.766243 53.8431226,129.411881 54.324375,128.188125 C54.8056274,126.964369 55.4862456,125.912504 56.36625,125.0325 C57.2462544,124.152496 58.2912439,123.465002 59.50125,122.97 C60.7112561,122.474998 62.0449927,122.2275 63.5025,122.2275 C64.9600073,122.2275 66.3006189,122.474998 67.524375,122.97 C68.7481311,123.465002 69.7999956,124.152496 70.68,125.0325 C71.5600044,125.912504 72.2406226,126.964369 72.721875,128.188125 C73.2031274,129.411881 73.44375,130.766243 73.44375,132.25125 L73.44375,132.25125 Z M72.53625,132.25125 C72.53625,130.986244 72.3300021,129.790006 71.9175,128.6625 C71.5049979,127.534994 70.9068789,126.551879 70.123125,125.713125 C69.3393711,124.874371 68.3906306,124.214377 67.276875,123.733125 C66.1631194,123.251873 64.905007,123.01125 63.5025,123.01125 C62.099993,123.01125 60.8487555,123.251873 59.74875,123.733125 C58.6487445,124.214377 57.7068789,124.874371 56.923125,125.713125 C56.1393711,126.551879 55.5412521,127.534994 55.12875,128.6625 C54.7162479,129.790006 54.51,130.986244 54.51,132.25125 C54.51,133.543756 54.7162479,134.753744 55.12875,135.88125 C55.5412521,137.008756 56.1393711,137.991871 56.923125,138.830625 C57.7068789,139.669379 58.6487445,140.336248 59.74875,140.83125 C60.8487555,141.326252 62.099993,141.57375 63.5025,141.57375 C64.905007,141.57375 66.1631194,141.326252 67.276875,140.83125 C68.3906306,140.336248 69.3393711,139.669379 70.123125,138.830625 C70.9068789,137.991871 71.5049979,137.008756 71.9175,135.88125 C72.3300021,134.753744 72.53625,133.543756 72.53625,132.25125 L72.53625,132.25125 Z M81.28125,127.79625 C81.8312528,125.81624 82.711244,124.393129 83.92125,123.526875 C85.131256,122.660621 86.437493,122.2275 87.84,122.2275 L88.21125,122.2275 C88.3212505,122.2275 88.4449993,122.24125 88.5825,122.26875 L88.5825,123.0525 C88.4724995,123.025 88.3693755,123.01125 88.273125,123.01125 L88.04625,123.01125 C86.8362439,123.01125 85.8050043,123.279372 84.9525,123.815625 C84.0999957,124.351878 83.3987528,125.053121 82.84875,125.919375 C82.2987473,126.785629 81.8931263,127.74812 81.631875,128.806875 C81.3706237,129.86563 81.24,130.917495 81.24,131.9625 L81.24,141.78 L80.3325,141.78 L80.3325,127.59 C80.3325,127.287498 80.3256251,126.916252 80.311875,126.47625 C80.2981249,126.036248 80.2843751,125.589377 80.270625,125.135625 C80.2568749,124.681873 80.2362501,124.248752 80.20875,123.83625 C80.1812499,123.423748 80.1537501,123.080001 80.12625,122.805 L81.03375,122.805 C81.0612501,123.080001 81.0818749,123.423748 81.095625,123.83625 C81.1093751,124.248752 81.1231249,124.695623 81.136875,125.176875 C81.1506251,125.658127 81.1643749,126.125623 81.178125,126.579375 C81.1918751,127.033127 81.19875,127.438748 81.19875,127.79625 L81.28125,127.79625 Z M94.23375,131.55 L104.05125,122.805 L105.33,122.805 L95.30625,131.59125 L106.485,141.78 L105.12375,141.78 L94.23375,131.75625 L94.1925,131.75625 L94.1925,141.78 L93.285,141.78 L93.285,110.595 L94.1925,110.595 L94.1925,131.55 L94.23375,131.55 Z M110.15625,132.08625 C110.15625,133.241256 110.328123,134.382494 110.671875,135.51 C111.015627,136.637506 111.538121,137.648121 112.239375,138.541875 C112.940629,139.435629 113.827495,140.157497 114.9,140.7075 C115.972505,141.257503 117.237493,141.5325 118.695,141.5325 C120.180007,141.5325 121.499994,141.236878 122.655,140.645625 C123.810006,140.054372 124.813746,139.195006 125.66625,138.0675 L126.32625,138.645 C125.391245,139.855006 124.298131,140.776247 123.046875,141.40875 C121.795619,142.041253 120.345008,142.3575 118.695,142.3575 C117.292493,142.3575 116.013756,142.103128 114.85875,141.594375 C113.703744,141.085622 112.706879,140.377505 111.868125,139.47 C111.029371,138.562495 110.383127,137.476256 109.929375,136.21125 C109.475623,134.946244 109.24875,133.571257 109.24875,132.08625 C109.24875,130.656243 109.482498,129.336256 109.95,128.12625 C110.417502,126.916244 111.056871,125.871254 111.868125,124.99125 C112.679379,124.111246 113.634995,123.430627 114.735,122.949375 C115.835006,122.468123 117.017494,122.2275 118.2825,122.2275 C119.767507,122.2275 121.059995,122.488747 122.16,123.01125 C123.260005,123.533753 124.174371,124.221246 124.903125,125.07375 C125.631879,125.926254 126.174998,126.89562 126.5325,127.981875 C126.890002,129.06813 127.06875,130.174994 127.06875,131.3025 L127.06875,132.08625 L110.15625,132.08625 Z M126.2025,131.3025 C126.175,130.064994 125.961877,128.937505 125.563125,127.92 C125.164373,126.902495 124.621253,126.029379 123.93375,125.300625 C123.246247,124.571871 122.421255,124.008127 121.45875,123.609375 C120.496245,123.210623 119.423756,123.01125 118.24125,123.01125 C116.811243,123.01125 115.587505,123.306872 114.57,123.898125 C113.552495,124.489378 112.720628,125.218121 112.074375,126.084375 C111.428122,126.950629 110.953752,127.85812 110.65125,128.806875 C110.348748,129.75563 110.1975,130.587496 110.1975,131.3025 L126.2025,131.3025 Z M134.90625,127.79625 C135.456253,125.81624 136.336244,124.393129 137.54625,123.526875 C138.756256,122.660621 140.062493,122.2275 141.465,122.2275 L141.83625,122.2275 C141.946251,122.2275 142.069999,122.24125 142.2075,122.26875 L142.2075,123.0525 C142.097499,123.025 141.994375,123.01125 141.898125,123.01125 L141.67125,123.01125 C140.461244,123.01125 139.430004,123.279372 138.5775,123.815625 C137.724996,124.351878 137.023753,125.053121 136.47375,125.919375 C135.923747,126.785629 135.518126,127.74812 135.256875,128.806875 C134.995624,129.86563 134.865,130.917495 134.865,131.9625 L134.865,141.78 L133.9575,141.78 L133.9575,127.59 C133.9575,127.287498 133.950625,126.916252 133.936875,126.47625 C133.923125,126.036248 133.909375,125.589377 133.895625,125.135625 C133.881875,124.681873 133.86125,124.248752 133.83375,123.83625 C133.80625,123.423748 133.77875,123.080001 133.75125,122.805 L134.65875,122.805 C134.68625,123.080001 134.706875,123.423748 134.720625,123.83625 C134.734375,124.248752 134.748125,124.695623 134.761875,125.176875 C134.775625,125.658127 134.789375,126.125623 134.803125,126.579375 C134.816875,127.033127 134.82375,127.438748 134.82375,127.79625 L134.90625,127.79625 Z" id="Service-Worker" fill="#4A4A4A"></path>
        </g>
    </g>
</svg>