<?xml version="1.0" encoding="UTF-8" standalone="no"?>
<svg width="666px" height="505px" viewBox="0 0 666 505" version="1.1" xmlns="http://www.w3.org/2000/svg" xmlns:xlink="http://www.w3.org/1999/xlink">
    <!-- Generator: Sketch 40.1 (33804) - http://www.bohemiancoding.com/sketch -->
    <title>Browser</title>
    <desc>Created with Sketch.</desc>
    <defs>
        <rect id="path-1" x="0" y="0" width="648" height="487"></rect>
        <filter x="-50%" y="-50%" width="200%" height="200%" filterUnits="objectBoundingBox" id="filter-2">
            <feOffset dx="3" dy="6" in="SourceAlpha" result="shadowOffsetOuter1"></feOffset>
            <feGaussianBlur stdDeviation="4.5" in="shadowOffsetOuter1" result="shadowBlurOuter1"></feGaussianBlur>
            <feColorMatrix values="0 0 0 0 0   0 0 0 0 0   0 0 0 0 0  0 0 0 0.214390851 0" type="matrix" in="shadowBlurOuter1"></feColorMatrix>
        </filter>
    </defs>
    <g id="Page-1" stroke="none" stroke-width="1" fill="none" fill-rule="evenodd">
        <g id="Browser" transform="translate(6.000000, 3.000000)">
            <g id="Rectangle-2">
                <use fill="black" fill-opacity="1" filter="url(#filter-2)" xlink:href="#path-1"></use>
                <use fill="#FFFFFF" fill-rule="evenodd" xlink:href="#path-1"></use>
            </g>
            <rect id="Rectangle-3" fill="#EAEAEA" x="0" y="0" width="648" height="45.0925926"></rect>
            <ellipse id="Oval" fill="#FC615D" cx="20.0418605" cy="23.0185185" rx="9.04186047" ry="9.01851852"></ellipse>
            <ellipse id="Oval" fill="#FDBC40" cx="47.0418605" cy="23.0185185" rx="9.04186047" ry="9.01851852"></ellipse>
            <ellipse id="Oval" fill="#34C84A" cx="74.0418605" cy="23.0185185" rx="9.04186047" ry="9.01851852"></ellipse>
            <rect id="Rectangle-4" fill="#F4F4F4" x="99.4604651" y="9.01851852" width="271.539535" height="27.0555556"></rect>
            <path d="M105.081055,28 L105.081055,15.8535156 L107.366211,15.8535156 C107.366211,15.9238285 107.354492,15.979492 107.331055,16.0205078 C107.307617,16.0615236 107.28125,16.0981444 107.251953,16.1303711 C107.222656,16.1625978 107.19336,16.1962889 107.164062,16.2314453 C107.134765,16.2666017 107.117188,16.3134763 107.111328,16.3720703 L107.111328,20.4589844 C107.404298,20.1425765 107.744139,19.8891611 108.130859,19.6987305 C108.51758,19.5082998 108.910154,19.4130859 109.308594,19.4130859 C109.73633,19.4130859 110.123045,19.4775384 110.46875,19.6064453 C110.814455,19.7353522 111.107421,19.9389635 111.347656,20.2172852 C111.587892,20.4956069 111.773925,20.8559548 111.905762,21.2983398 C112.037598,21.7407249 112.103516,22.2753875 112.103516,22.9023438 L112.103516,28 L110.117188,28 L110.117188,22.9199219 C110.117188,22.5976546 110.087891,22.3193371 110.029297,22.0849609 C109.970703,21.8505848 109.888672,21.6586922 109.783203,21.5092773 C109.677734,21.3598625 109.551759,21.2500004 109.405273,21.1796875 C109.258788,21.1093746 109.094727,21.0742188 108.913086,21.0742188 C108.661132,21.0742188 108.425294,21.1240229 108.205566,21.2236328 C107.985839,21.3232427 107.795411,21.4638663 107.634277,21.6455078 C107.473144,21.8271493 107.345704,22.0454089 107.251953,22.300293 C107.158203,22.5551771 107.111328,22.8349594 107.111328,23.1396484 L107.111328,28 L105.081055,28 Z M116.058594,17.6289062 L118.291016,17.2509766 C118.291016,17.4033211 118.267578,17.5292964 118.220703,17.6289062 C118.173828,17.7285161 118.132813,17.8427728 118.097656,17.9716797 L117.913086,19.5976562 L120.453125,19.5976562 L120.453125,21.2324219 L117.842773,21.2324219 C117.825195,21.6660178 117.797363,22.1142555 117.759277,22.5771484 C117.721191,23.0400414 117.702148,23.4970681 117.702148,23.9482422 C117.702148,24.4052757 117.712402,24.7978499 117.73291,25.1259766 C117.753418,25.4541032 117.797363,25.7207021 117.864746,25.9257812 C117.932129,26.1308604 118.028808,26.2817378 118.154785,26.378418 C118.280762,26.4750981 118.446288,26.5234375 118.651367,26.5234375 C118.850587,26.5234375 119.114256,26.4370126 119.442383,26.2641602 C119.770509,26.0913077 120.142576,25.8466813 120.558594,25.5302734 L121.191406,27.1914062 C120.699216,27.5429705 120.217288,27.8139639 119.745605,28.0043945 C119.273923,28.1948252 118.806643,28.2900391 118.34375,28.2900391 C117.874998,28.2900391 117.47217,28.2241218 117.135254,28.0922852 C116.798338,27.9604486 116.520021,27.7553725 116.300293,27.4770508 C116.080565,27.1987291 115.919434,26.8427756 115.816895,26.4091797 C115.714355,25.9755838 115.663086,25.4570343 115.663086,24.8535156 C115.663086,24.4492167 115.674805,23.94971 115.698242,23.3549805 C115.72168,22.7602509 115.765625,22.0527385 115.830078,21.2324219 L114.010742,21.2324219 L114.010742,19.5976562 L115.935547,19.5976562 L116.058594,17.6289062 Z M125.058594,17.6289062 L127.291016,17.2509766 C127.291016,17.4033211 127.267578,17.5292964 127.220703,17.6289062 C127.173828,17.7285161 127.132813,17.8427728 127.097656,17.9716797 L126.913086,19.5976562 L129.453125,19.5976562 L129.453125,21.2324219 L126.842773,21.2324219 C126.825195,21.6660178 126.797363,22.1142555 126.759277,22.5771484 C126.721191,23.0400414 126.702148,23.4970681 126.702148,23.9482422 C126.702148,24.4052757 126.712402,24.7978499 126.73291,25.1259766 C126.753418,25.4541032 126.797363,25.7207021 126.864746,25.9257812 C126.932129,26.1308604 127.028808,26.2817378 127.154785,26.378418 C127.280762,26.4750981 127.446288,26.5234375 127.651367,26.5234375 C127.850587,26.5234375 128.114256,26.4370126 128.442383,26.2641602 C128.770509,26.0913077 129.142576,25.8466813 129.558594,25.5302734 L130.191406,27.1914062 C129.699216,27.5429705 129.217288,27.8139639 128.745605,28.0043945 C128.273923,28.1948252 127.806643,28.2900391 127.34375,28.2900391 C126.874998,28.2900391 126.47217,28.2241218 126.135254,28.0922852 C125.798338,27.9604486 125.520021,27.7553725 125.300293,27.4770508 C125.080565,27.1987291 124.919434,26.8427756 124.816895,26.4091797 C124.714355,25.9755838 124.663086,25.4570343 124.663086,24.8535156 C124.663086,24.4492167 124.674805,23.94971 124.698242,23.3549805 C124.72168,22.7602509 124.765625,22.0527385 124.830078,21.2324219 L123.010742,21.2324219 L123.010742,19.5976562 L124.935547,19.5976562 L125.058594,17.6289062 Z M134.005859,23.7197266 C134.005859,24.2412135 134.043945,24.6850568 134.120117,25.0512695 C134.196289,25.4174823 134.304687,25.7163074 134.445312,25.9477539 C134.585938,26.1792004 134.757323,26.3476557 134.959473,26.453125 C135.161622,26.5585943 135.388671,26.6113281 135.640625,26.6113281 C135.845704,26.6113281 136.05664,26.5644536 136.273438,26.4707031 C136.490235,26.3769527 136.687987,26.2246104 136.866699,26.0136719 C137.045411,25.8027333 137.191894,25.5258806 137.306152,25.1831055 C137.420411,24.8403303 137.477539,24.4169947 137.477539,23.9130859 C137.477539,23.0048783 137.314943,22.30469 136.989746,21.8125 C136.664549,21.32031 136.197269,21.0742188 135.587891,21.0742188 C135.265623,21.0742188 135.001954,21.1459954 134.796875,21.2895508 C134.591796,21.4331062 134.430665,21.6264636 134.313477,21.8696289 C134.196288,22.1127942 134.115723,22.3940414 134.071777,22.7133789 C134.027832,23.0327164 134.005859,23.3681623 134.005859,23.7197266 L134.005859,23.7197266 Z M131.975586,19.5976562 L133.917969,19.5976562 L133.917969,20.4589844 C134.052735,20.2714834 134.202148,20.1118171 134.366211,19.9799805 C134.530274,19.8481439 134.700194,19.7397465 134.875977,19.6547852 C135.051759,19.5698238 135.229003,19.508301 135.407715,19.4702148 C135.586427,19.4321287 135.760741,19.4130859 135.930664,19.4130859 C136.422854,19.4130859 136.884275,19.5082998 137.314941,19.6987305 C137.745608,19.8891611 138.123534,20.1748028 138.44873,20.5556641 C138.773927,20.9365253 139.030272,21.4155245 139.217773,21.9926758 C139.405274,22.5698271 139.499023,23.2451133 139.499023,24.0185547 C139.499023,24.7216832 139.402345,25.3383763 139.208984,25.8686523 C139.015624,26.3989284 138.756349,26.8427717 138.431152,27.2001953 C138.105955,27.557619 137.729494,27.8256827 137.301758,28.0043945 C136.874021,28.1831064 136.422854,28.2724609 135.948242,28.2724609 C135.596678,28.2724609 135.245119,28.1977547 134.893555,28.0483398 C134.54199,27.898925 134.246095,27.6982434 134.005859,27.4462891 L134.005859,31.0058594 L131.993164,31.0058594 L131.975586,19.5976562 Z M147.022461,22.3310547 C146.975586,22.3310547 146.938965,22.3178712 146.912598,22.2915039 C146.88623,22.2651366 146.865723,22.2329103 146.851074,22.1948242 C146.836426,22.1567381 146.823242,22.1157229 146.811523,22.0717773 C146.799805,22.0278318 146.785156,21.9882814 146.767578,21.953125 C146.662109,21.8242181 146.530274,21.6997076 146.37207,21.5795898 C146.213866,21.4594721 146.039552,21.3554692 145.849121,21.2675781 C145.65869,21.1796871 145.456544,21.1093753 145.242676,21.0566406 C145.028808,21.003906 144.816407,20.9775391 144.605469,20.9775391 C144.423827,20.9775391 144.250977,20.9907225 144.086914,21.0170898 C143.922851,21.0434572 143.777833,21.0859372 143.651855,21.1445312 C143.525878,21.2031253 143.42627,21.2792964 143.353027,21.3730469 C143.279785,21.4667973 143.243164,21.581054 143.243164,21.7158203 C143.243164,21.8681648 143.282714,21.995605 143.361816,22.0981445 C143.440918,22.2006841 143.55957,22.2944332 143.717773,22.3793945 C143.875977,22.4643559 144.075194,22.5449215 144.31543,22.6210938 C144.555665,22.697266 144.839842,22.7792964 145.167969,22.8671875 C146.169927,23.1484389 146.906736,23.5087869 147.378418,23.9482422 C147.8501,24.3876975 148.085938,24.8915987 148.085938,25.4599609 C148.085938,25.8408222 148.000977,26.2011702 147.831055,26.5410156 C147.661132,26.8808611 147.4209,27.181151 147.110352,27.4418945 C146.799803,27.702638 146.423342,27.9091789 145.980957,28.0615234 C145.538572,28.2138679 145.044925,28.2900391 144.5,28.2900391 C143.791012,28.2900391 143.136233,28.1772472 142.535645,27.9516602 C141.935056,27.7260731 141.371096,27.3642603 140.84375,26.8662109 L141.889648,24.9765625 C141.959961,24.9882813 142.012695,25.0307614 142.047852,25.1040039 C142.083008,25.1772465 142.126953,25.2783197 142.179688,25.4072266 C142.273438,25.5595711 142.408202,25.7075188 142.583984,25.8510742 C142.759767,25.9946296 142.956054,26.1249994 143.172852,26.2421875 C143.38965,26.3593756 143.616698,26.4531246 143.854004,26.5234375 C144.09131,26.5937504 144.318358,26.6289062 144.535156,26.6289062 C145.015627,26.6289062 145.387694,26.5600593 145.651367,26.4223633 C145.91504,26.2846673 146.046875,26.0781264 146.046875,25.8027344 C146.046875,25.6621087 146.017578,25.539063 145.958984,25.4335938 C145.90039,25.3281245 145.808106,25.2299809 145.682129,25.1391602 C145.556152,25.0483394 145.390626,24.9633793 145.185547,24.8842773 C144.980468,24.8051754 144.728517,24.7216801 144.429688,24.6337891 C144.265624,24.5869138 144.103028,24.5400393 143.941895,24.4931641 C143.780761,24.4462888 143.618165,24.3906253 143.454102,24.3261719 C143.125975,24.2031244 142.833009,24.0639656 142.575195,23.9086914 C142.317382,23.7534172 142.099122,23.5791025 141.92041,23.3857422 C141.741698,23.1923818 141.605469,22.9741223 141.511719,22.730957 C141.417968,22.4877918 141.371094,22.2167984 141.371094,21.9179688 C141.371094,21.6191391 141.454589,21.320314 141.621582,21.0214844 C141.788575,20.7226548 142.018553,20.454591 142.311523,20.2172852 C142.604494,19.9799793 142.954588,19.7866218 143.361816,19.637207 C143.769045,19.4877922 144.215818,19.4130859 144.702148,19.4130859 C145.340824,19.4130859 145.934079,19.5273426 146.481934,19.7558594 C147.029788,19.9843761 147.532224,20.3564427 147.989258,20.8720703 L147.022461,22.3310547 Z M153.192383,20.1689453 C153.356446,20.1689453 153.519042,20.1982419 153.680176,20.2568359 C153.841309,20.31543 153.986327,20.3989252 154.115234,20.5073242 C154.244141,20.6157232 154.348144,20.7446282 154.427246,20.894043 C154.506348,21.0434578 154.545898,21.2089835 154.545898,21.390625 C154.545898,21.5605477 154.509278,21.7187493 154.436035,21.8652344 C154.362793,22.0117195 154.264649,22.1420893 154.141602,22.2563477 C154.018554,22.370606 153.875001,22.4599606 153.710938,22.5244141 C153.546874,22.5888675 153.374024,22.6210938 153.192383,22.6210938 C153.016601,22.6210938 152.848145,22.5888675 152.687012,22.5244141 C152.525878,22.4599606 152.385255,22.370606 152.265137,22.2563477 C152.145019,22.1420893 152.04834,22.0117195 151.975098,21.8652344 C151.901855,21.7187493 151.865234,21.5605477 151.865234,21.390625 C151.865234,21.2265617 151.901855,21.069825 151.975098,20.9204102 C152.04834,20.7709953 152.145019,20.6406256 152.265137,20.5292969 C152.385255,20.4179682 152.525878,20.3300784 152.687012,20.265625 C152.848145,20.2011716 153.016601,20.1689453 153.192383,20.1689453 L153.192383,20.1689453 Z M153.192383,25.7851562 C153.356446,25.7851562 153.519042,25.8159177 153.680176,25.8774414 C153.841309,25.9389652 153.986327,26.0253901 154.115234,26.1367188 C154.244141,26.2480474 154.348144,26.3784172 154.427246,26.527832 C154.506348,26.6772468 154.545898,26.8427725 154.545898,27.0244141 C154.545898,27.1884774 154.510743,27.3437493 154.44043,27.4902344 C154.370117,27.6367195 154.273438,27.7656244 154.150391,27.8769531 C154.027343,27.9882818 153.88379,28.0761716 153.719727,28.140625 C153.555663,28.2050784 153.379884,28.2373047 153.192383,28.2373047 C153.004882,28.2373047 152.830567,28.2050784 152.669434,28.140625 C152.5083,28.0761716 152.369141,27.9897466 152.251953,27.8813477 C152.134765,27.7729487 152.041016,27.6455085 151.970703,27.4990234 C151.90039,27.3525383 151.865234,27.1943368 151.865234,27.0244141 C151.865234,26.8544913 151.901855,26.694825 151.975098,26.5454102 C152.04834,26.3959953 152.145019,26.2641607 152.265137,26.1499023 C152.385255,26.035644 152.525878,25.9462894 152.687012,25.8818359 C152.848145,25.8173825 153.016601,25.7851562 153.192383,25.7851562 L153.192383,25.7851562 Z M158.931641,28.0878906 L164.512695,15.9941406 L166.085938,16.8027344 L160.522461,28.84375 L158.931641,28.0878906 Z M167.931641,28.0878906 L173.512695,15.9941406 L175.085938,16.8027344 L169.522461,28.84375 L167.931641,28.0878906 Z M180.640625,19.4130859 C181.138674,19.4130859 181.60449,19.5009757 182.038086,19.6767578 C182.471682,19.8525399 182.851073,20.1118147 183.17627,20.4545898 C183.501466,20.797365 183.757812,21.2250951 183.945312,21.737793 C184.132813,22.2504908 184.226562,22.8437466 184.226562,23.5175781 C184.226562,23.6640632 184.220703,23.8076165 184.208984,23.9482422 C184.197266,24.0888679 184.185547,24.2265618 184.173828,24.3613281 L178.663086,24.3613281 C178.709961,24.765627 178.80371,25.1127915 178.944336,25.402832 C179.084962,25.6928725 179.254882,25.9331045 179.454102,26.1235352 C179.653321,26.3139658 179.874511,26.4545894 180.117676,26.5454102 C180.360841,26.6362309 180.608397,26.6816406 180.860352,26.6816406 C181.241213,26.6816406 181.614744,26.5952157 181.980957,26.4223633 C182.34717,26.2495109 182.662108,25.9960954 182.925781,25.6621094 L184.041992,26.7783203 C183.192379,27.7861379 182.131842,28.2900391 180.860352,28.2900391 C180.256833,28.2900391 179.698733,28.1904307 179.186035,27.9912109 C178.673337,27.7919912 178.230959,27.5048847 177.858887,27.1298828 C177.486815,26.7548809 177.195314,26.2963894 176.984375,25.7543945 C176.773436,25.2123996 176.667969,24.5986362 176.667969,23.9130859 C176.667969,23.2158168 176.767577,22.58887 176.966797,22.0322266 C177.166017,21.4755832 177.442869,21.0039082 177.797363,20.6171875 C178.151857,20.2304668 178.570798,19.9331065 179.054199,19.7250977 C179.5376,19.5170888 180.066403,19.4130859 180.640625,19.4130859 L180.640625,19.4130859 Z M182.213867,22.8847656 C182.213867,22.6210924 182.174317,22.3706067 182.095215,22.1333008 C182.016113,21.8959949 181.904786,21.6879892 181.76123,21.5092773 C181.617675,21.3305655 181.441896,21.1884771 181.233887,21.0830078 C181.025878,20.9775385 180.79297,20.9248047 180.535156,20.9248047 C180.289061,20.9248047 180.062013,20.9716792 179.854004,21.0654297 C179.645995,21.1591802 179.464356,21.2910148 179.309082,21.4609375 C179.153808,21.6308602 179.027833,21.8359363 178.931152,22.0761719 C178.834472,22.3164075 178.768555,22.585936 178.733398,22.8847656 L182.213867,22.8847656 Z M191.099609,19.5976562 L193.279297,19.5976562 L190.598633,23.6757812 C191.342777,24.7421928 191.975583,25.6503869 192.49707,26.4003906 C193.018557,27.1503944 193.393554,27.6835922 193.62207,28 L191.319336,28 L189.482422,25.1523438 L187.750977,28 L185.448242,28 L188.348633,23.7373047 C186.649406,21.2763549 185.694337,19.8964859 185.483398,19.5976562 L187.750977,19.5976562 L189.464844,22.3134766 L191.099609,19.5976562 Z M195.353516,20.7841797 C196.220707,19.8701126 197.281244,19.4130859 198.535156,19.4130859 C199.068362,19.4130859 199.545896,19.4804681 199.967773,19.6152344 C200.389651,19.7500007 200.747069,19.9594712 201.040039,20.2436523 C201.333009,20.5278335 201.558593,20.8881814 201.716797,21.324707 C201.875001,21.7612327 201.954102,22.281247 201.954102,22.8847656 L201.954102,28 L200.029297,28 L200.029297,27.2441406 C199.712889,27.5429702 199.336428,27.7802726 198.899902,27.9560547 C198.463377,28.1318368 198.025393,28.2197266 197.585938,28.2197266 C197.093748,28.2197266 196.667482,28.1538093 196.307129,28.0219727 C195.946776,27.8901361 195.649415,27.7128917 195.415039,27.4902344 C195.180663,27.267577 195.006348,27.0068374 194.89209,26.7080078 C194.777831,26.4091782 194.720703,26.0957048 194.720703,25.7675781 C194.720703,25.3339822 194.812987,24.9370135 194.997559,24.5766602 C195.18213,24.2163068 195.453123,23.905763 195.810547,23.6450195 C196.167971,23.384276 196.608884,23.1806648 197.133301,23.0341797 C197.657717,22.8876946 198.262692,22.8144531 198.948242,22.8144531 L200.011719,22.8144531 C200,22.1757781 199.871095,21.7128921 199.625,21.4257812 C199.378905,21.1386704 198.99219,20.9951172 198.464844,20.9951172 C197.779293,20.9951172 197.082035,21.3671838 196.373047,22.1113281 L195.353516,20.7841797 Z M199.326172,24.3261719 C198.798825,24.3144531 198.365236,24.3452145 198.025391,24.418457 C197.685545,24.4916996 197.418946,24.5927728 197.225586,24.7216797 C197.032226,24.8505866 196.898926,24.9985343 196.825684,25.1655273 C196.752441,25.3325204 196.71582,25.4980461 196.71582,25.6621094 C196.71582,25.8027351 196.748047,25.9345697 196.8125,26.0576172 C196.876953,26.1806647 196.964843,26.2875972 197.076172,26.378418 C197.187501,26.4692387 197.31787,26.5424802 197.467285,26.5981445 C197.6167,26.6538089 197.776366,26.6816406 197.946289,26.6816406 C198.221681,26.6816406 198.469237,26.6333013 198.688965,26.5366211 C198.908693,26.4399409 199.100585,26.3242194 199.264648,26.1894531 C199.428712,26.0546868 199.566406,25.9140632 199.677734,25.7675781 C199.789063,25.621093 199.871093,25.4951177 199.923828,25.3896484 C199.970703,25.3017574 200.005859,25.1713876 200.029297,24.9985352 C200.052734,24.8256827 200.064453,24.6074232 200.064453,24.34375 L199.326172,24.3261719 Z M203.580078,28 L203.580078,19.5009766 L205.302734,19.5009766 L205.302734,20.0283203 C205.566408,19.7470689 205.831542,19.5449225 206.098145,19.421875 C206.364747,19.2988275 206.615233,19.2373047 206.849609,19.2373047 C206.960938,19.2373047 207.079589,19.2534178 207.205566,19.2856445 C207.331544,19.3178713 207.454589,19.3735348 207.574707,19.4526367 C207.694825,19.5317387 207.810546,19.6357415 207.921875,19.7646484 C208.033204,19.8935553 208.132812,20.0517569 208.220703,20.2392578 C208.425782,19.9111312 208.683592,19.6621102 208.994141,19.4921875 C209.304689,19.3222648 209.615233,19.2373047 209.925781,19.2373047 C210.248048,19.2373047 210.516112,19.2915034 210.72998,19.3999023 C210.943849,19.5083013 211.115234,19.6694325 211.244141,19.8833008 C211.373048,20.097169 211.465332,20.3637679 211.520996,20.6831055 C211.57666,21.002443 211.604492,21.3701151 211.604492,21.7861328 L211.604492,28 L209.732422,28 L209.732422,22.1289062 C209.732422,21.6601539 209.692871,21.324708 209.61377,21.1225586 C209.534668,20.9204091 209.395509,20.8193359 209.196289,20.8193359 C208.739256,20.8193359 208.510742,21.3701117 208.510742,22.4716797 L208.510742,28 L206.65625,28 L206.65625,22.2255859 C206.65625,21.9267563 206.640137,21.6850595 206.60791,21.5004883 C206.575683,21.315917 206.534668,21.1738286 206.484863,21.0742188 C206.435058,20.9746089 206.379395,20.9072267 206.317871,20.8720703 C206.256347,20.8369139 206.19336,20.8193359 206.128906,20.8193359 C206.017578,20.8193359 205.916504,20.844238 205.825684,20.894043 C205.734863,20.9438479 205.657227,21.028808 205.592773,21.1489258 C205.52832,21.2690436 205.478516,21.4316396 205.443359,21.6367188 C205.408203,21.8417979 205.390625,22.1025375 205.390625,22.4189453 L205.390625,28 L203.580078,28 Z M215.005859,23.7197266 C215.005859,24.2412135 215.043945,24.6850568 215.120117,25.0512695 C215.196289,25.4174823 215.304687,25.7163074 215.445312,25.9477539 C215.585938,26.1792004 215.757323,26.3476557 215.959473,26.453125 C216.161622,26.5585943 216.388671,26.6113281 216.640625,26.6113281 C216.845704,26.6113281 217.05664,26.5644536 217.273438,26.4707031 C217.490235,26.3769527 217.687987,26.2246104 217.866699,26.0136719 C218.045411,25.8027333 218.191894,25.5258806 218.306152,25.1831055 C218.420411,24.8403303 218.477539,24.4169947 218.477539,23.9130859 C218.477539,23.0048783 218.314943,22.30469 217.989746,21.8125 C217.664549,21.32031 217.197269,21.0742188 216.587891,21.0742188 C216.265623,21.0742188 216.001954,21.1459954 215.796875,21.2895508 C215.591796,21.4331062 215.430665,21.6264636 215.313477,21.8696289 C215.196288,22.1127942 215.115723,22.3940414 215.071777,22.7133789 C215.027832,23.0327164 215.005859,23.3681623 215.005859,23.7197266 L215.005859,23.7197266 Z M212.975586,19.5976562 L214.917969,19.5976562 L214.917969,20.4589844 C215.052735,20.2714834 215.202148,20.1118171 215.366211,19.9799805 C215.530274,19.8481439 215.700194,19.7397465 215.875977,19.6547852 C216.051759,19.5698238 216.229003,19.508301 216.407715,19.4702148 C216.586427,19.4321287 216.760741,19.4130859 216.930664,19.4130859 C217.422854,19.4130859 217.884275,19.5082998 218.314941,19.6987305 C218.745608,19.8891611 219.123534,20.1748028 219.44873,20.5556641 C219.773927,20.9365253 220.030272,21.4155245 220.217773,21.9926758 C220.405274,22.5698271 220.499023,23.2451133 220.499023,24.0185547 C220.499023,24.7216832 220.402345,25.3383763 220.208984,25.8686523 C220.015624,26.3989284 219.756349,26.8427717 219.431152,27.2001953 C219.105955,27.557619 218.729494,27.8256827 218.301758,28.0043945 C217.874021,28.1831064 217.422854,28.2724609 216.948242,28.2724609 C216.596678,28.2724609 216.245119,28.1977547 215.893555,28.0483398 C215.54199,27.898925 215.246095,27.6982434 215.005859,27.4462891 L215.005859,31.0058594 L212.993164,31.0058594 L212.975586,19.5976562 Z M222.318359,15.8535156 L226.52832,15.8535156 L226.52832,26.4355469 L228.831055,26.4355469 L228.831055,28 L222.204102,28 L222.204102,26.4355469 L224.506836,26.4355469 L224.506836,17.4179688 L222.318359,17.4179688 L222.318359,15.8535156 Z M234.640625,19.4130859 C235.138674,19.4130859 235.60449,19.5009757 236.038086,19.6767578 C236.471682,19.8525399 236.851073,20.1118147 237.17627,20.4545898 C237.501466,20.797365 237.757812,21.2250951 237.945312,21.737793 C238.132813,22.2504908 238.226562,22.8437466 238.226562,23.5175781 C238.226562,23.6640632 238.220703,23.8076165 238.208984,23.9482422 C238.197266,24.0888679 238.185547,24.2265618 238.173828,24.3613281 L232.663086,24.3613281 C232.709961,24.765627 232.80371,25.1127915 232.944336,25.402832 C233.084962,25.6928725 233.254882,25.9331045 233.454102,26.1235352 C233.653321,26.3139658 233.874511,26.4545894 234.117676,26.5454102 C234.360841,26.6362309 234.608397,26.6816406 234.860352,26.6816406 C235.241213,26.6816406 235.614744,26.5952157 235.980957,26.4223633 C236.34717,26.2495109 236.662108,25.9960954 236.925781,25.6621094 L238.041992,26.7783203 C237.192379,27.7861379 236.131842,28.2900391 234.860352,28.2900391 C234.256833,28.2900391 233.698733,28.1904307 233.186035,27.9912109 C232.673337,27.7919912 232.230959,27.5048847 231.858887,27.1298828 C231.486815,26.7548809 231.195314,26.2963894 230.984375,25.7543945 C230.773436,25.2123996 230.667969,24.5986362 230.667969,23.9130859 C230.667969,23.2158168 230.767577,22.58887 230.966797,22.0322266 C231.166017,21.4755832 231.442869,21.0039082 231.797363,20.6171875 C232.151857,20.2304668 232.570798,19.9331065 233.054199,19.7250977 C233.5376,19.5170888 234.066403,19.4130859 234.640625,19.4130859 L234.640625,19.4130859 Z M236.213867,22.8847656 C236.213867,22.6210924 236.174317,22.3706067 236.095215,22.1333008 C236.016113,21.8959949 235.904786,21.6879892 235.76123,21.5092773 C235.617675,21.3305655 235.441896,21.1884771 235.233887,21.0830078 C235.025878,20.9775385 234.79297,20.9248047 234.535156,20.9248047 C234.289061,20.9248047 234.062013,20.9716792 233.854004,21.0654297 C233.645995,21.1591802 233.464356,21.2910148 233.309082,21.4609375 C233.153808,21.6308602 233.027833,21.8359363 232.931152,22.0761719 C232.834472,22.3164075 232.768555,22.585936 232.733398,22.8847656 L236.213867,22.8847656 Z M243.341797,25.7851562 C243.517579,25.7851562 243.687499,25.821777 243.851562,25.8950195 C244.015626,25.9682621 244.159179,26.0649408 244.282227,26.1850586 C244.405274,26.3051764 244.503418,26.4384758 244.57666,26.5849609 C244.649903,26.731446 244.686523,26.877929 244.686523,27.0244141 C244.686523,27.1884774 244.651368,27.3437493 244.581055,27.4902344 C244.510742,27.6367195 244.414063,27.7656244 244.291016,27.8769531 C244.167968,27.9882818 244.024415,28.0761716 243.860352,28.140625 C243.696288,28.2050784 243.523438,28.2373047 243.341797,28.2373047 C243.154296,28.2373047 242.978516,28.2050784 242.814453,28.140625 C242.65039,28.0761716 242.508301,27.9897466 242.388184,27.8813477 C242.268066,27.7729487 242.174317,27.6455085 242.106934,27.4990234 C242.03955,27.3525383 242.005859,27.1943368 242.005859,27.0244141 C242.005859,26.8544913 242.041015,26.694825 242.111328,26.5454102 C242.181641,26.3959953 242.27832,26.2641607 242.401367,26.1499023 C242.524415,26.035644 242.666503,25.9462894 242.827637,25.8818359 C242.98877,25.8173825 243.160155,25.7851562 243.341797,25.7851562 L243.341797,25.7851562 Z M255.022461,22.5419922 C254.969726,22.5302734 254.931641,22.5083009 254.908203,22.4760742 C254.884766,22.4438475 254.867188,22.4072268 254.855469,22.3662109 C254.84375,22.3251951 254.833496,22.2797854 254.824707,22.2299805 C254.815918,22.1801755 254.802734,22.1289065 254.785156,22.0761719 C254.621093,21.7949205 254.385255,21.5605478 254.077637,21.3730469 C253.770018,21.1855459 253.393557,21.0917969 252.948242,21.0917969 C252.643553,21.0917969 252.356447,21.1577142 252.086914,21.2895508 C251.817381,21.4213874 251.583009,21.6059558 251.383789,21.8432617 C251.184569,22.0805676 251.026368,22.3632796 250.90918,22.6914062 C250.791992,23.0195329 250.733398,23.3798808 250.733398,23.7724609 C250.733398,24.1709004 250.787597,24.5385725 250.895996,24.8754883 C251.004395,25.212404 251.156737,25.5068347 251.353027,25.7587891 C251.549317,26.0107434 251.78369,26.2070305 252.056152,26.3476562 C252.328615,26.488282 252.631834,26.5585938 252.96582,26.5585938 C253.129884,26.5585938 253.301269,26.539551 253.47998,26.5014648 C253.658692,26.4633787 253.838866,26.4003911 254.020508,26.3125 C254.202149,26.2246089 254.380858,26.1088874 254.556641,25.965332 C254.732423,25.8217766 254.905273,25.647462 255.075195,25.4423828 L256.244141,26.7958984 C255.769529,27.3291042 255.24805,27.7114246 254.679688,27.9428711 C254.111325,28.1743176 253.510745,28.2900391 252.87793,28.2900391 C252.262692,28.2900391 251.698733,28.1787121 251.186035,27.9560547 C250.673337,27.7333973 250.232424,27.4257832 249.863281,27.0332031 C249.494139,26.640623 249.205567,26.1748074 248.997559,25.6357422 C248.78955,25.096677 248.685547,24.5107454 248.685547,23.8779297 C248.685547,23.2509734 248.788085,22.6665066 248.993164,22.1245117 C249.198243,21.5825168 249.488279,21.1108419 249.863281,20.7094727 C250.238283,20.3081035 250.687986,19.9917004 251.212402,19.7602539 C251.736819,19.5288074 252.315427,19.4130859 252.948242,19.4130859 C253.299806,19.4130859 253.639647,19.4482418 253.967773,19.5185547 C254.2959,19.5888675 254.604979,19.6914056 254.89502,19.8261719 C255.18506,19.9609382 255.450194,20.1293935 255.69043,20.331543 C255.930665,20.5336924 256.138671,20.7666002 256.314453,21.0302734 L255.022461,22.5419922 Z M261.570312,19.4130859 C262.115237,19.4130859 262.624998,19.5126943 263.099609,19.7119141 C263.574221,19.9111338 263.988768,20.1997051 264.343262,20.5776367 C264.697756,20.9555683 264.976073,21.4199191 265.178223,21.9707031 C265.380372,22.5214871 265.481445,23.1455043 265.481445,23.8427734 C265.481445,24.5400425 265.381837,25.1640597 265.182617,25.7148438 C264.983397,26.2656278 264.709474,26.7314434 264.36084,27.1123047 C264.012205,27.493166 263.597659,27.784667 263.117188,27.9868164 C262.636716,28.1889659 262.115237,28.2900391 261.552734,28.2900391 C260.990232,28.2900391 260.464358,28.1816417 259.975098,27.9648438 C259.485837,27.7480458 259.058107,27.4433613 258.691895,27.0507812 C258.325682,26.6582012 258.038575,26.1923855 257.830566,25.6533203 C257.622558,25.1142551 257.518555,24.5224642 257.518555,23.8779297 C257.518555,23.2392546 257.625487,22.6474637 257.839355,22.1025391 C258.053224,21.5576145 258.344725,21.0859395 258.713867,20.6875 C259.08301,20.2890605 259.512205,19.9770519 260.001465,19.7514648 C260.490725,19.5258778 261.013669,19.4130859 261.570312,19.4130859 L261.570312,19.4130859 Z M263.477539,23.8779297 C263.477539,23.4208962 263.4292,23.0166033 263.33252,22.6650391 C263.235839,22.3134748 263.09961,22.0161145 262.923828,21.7729492 C262.748046,21.5297839 262.54004,21.3452155 262.299805,21.2192383 C262.059569,21.0932611 261.79883,21.0302734 261.517578,21.0302734 C261.230467,21.0302734 260.968263,21.0932611 260.730957,21.2192383 C260.493651,21.3452155 260.291505,21.5283191 260.124512,21.7685547 C259.957519,22.0087903 259.827149,22.3002913 259.733398,22.6430664 C259.639648,22.9858416 259.592773,23.3740213 259.592773,23.8076172 C259.592773,24.2412131 259.638183,24.6323225 259.729004,24.980957 C259.819825,25.3295916 259.950194,25.6269519 260.120117,25.8730469 C260.29004,26.1191419 260.496581,26.3095696 260.739746,26.4443359 C260.982911,26.5791022 261.253905,26.6464844 261.552734,26.6464844 C262.138675,26.6464844 262.605955,26.4091821 262.95459,25.9345703 C263.303224,25.4599586 263.477539,24.7744185 263.477539,23.8779297 L263.477539,23.8779297 Z M266.580078,28 L266.580078,19.5009766 L268.302734,19.5009766 L268.302734,20.0283203 C268.566408,19.7470689 268.831542,19.5449225 269.098145,19.421875 C269.364747,19.2988275 269.615233,19.2373047 269.849609,19.2373047 C269.960938,19.2373047 270.079589,19.2534178 270.205566,19.2856445 C270.331544,19.3178713 270.454589,19.3735348 270.574707,19.4526367 C270.694825,19.5317387 270.810546,19.6357415 270.921875,19.7646484 C271.033204,19.8935553 271.132812,20.0517569 271.220703,20.2392578 C271.425782,19.9111312 271.683592,19.6621102 271.994141,19.4921875 C272.304689,19.3222648 272.615233,19.2373047 272.925781,19.2373047 C273.248048,19.2373047 273.516112,19.2915034 273.72998,19.3999023 C273.943849,19.5083013 274.115234,19.6694325 274.244141,19.8833008 C274.373048,20.097169 274.465332,20.3637679 274.520996,20.6831055 C274.57666,21.002443 274.604492,21.3701151 274.604492,21.7861328 L274.604492,28 L272.732422,28 L272.732422,22.1289062 C272.732422,21.6601539 272.692871,21.324708 272.61377,21.1225586 C272.534668,20.9204091 272.395509,20.8193359 272.196289,20.8193359 C271.739256,20.8193359 271.510742,21.3701117 271.510742,22.4716797 L271.510742,28 L269.65625,28 L269.65625,22.2255859 C269.65625,21.9267563 269.640137,21.6850595 269.60791,21.5004883 C269.575683,21.315917 269.534668,21.1738286 269.484863,21.0742188 C269.435058,20.9746089 269.379395,20.9072267 269.317871,20.8720703 C269.256347,20.8369139 269.19336,20.8193359 269.128906,20.8193359 C269.017578,20.8193359 268.916504,20.844238 268.825684,20.894043 C268.734863,20.9438479 268.657227,21.028808 268.592773,21.1489258 C268.52832,21.2690436 268.478516,21.4316396 268.443359,21.6367188 C268.408203,21.8417979 268.390625,22.1025375 268.390625,22.4189453 L268.390625,28 L266.580078,28 Z" id="https://example.com" fill="#B3B3B3"></path>
        </g>
    </g>
</svg>