<?xml version="1.0" encoding="UTF-8" standalone="no"?>
<svg width="228px" height="220px" viewBox="0 0 228 220" version="1.1" xmlns="http://www.w3.org/2000/svg" xmlns:xlink="http://www.w3.org/1999/xlink">
    <!-- Generator: Sketch 40.1 (33804) - http://www.bohemiancoding.com/sketch -->
    <title>JS</title>
    <desc>Created with Sketch.</desc>
    <defs>
        <rect id="path-1" x="0" y="0" width="207.692308" height="200"></rect>
        <filter x="-50%" y="-50%" width="200%" height="200%" filterUnits="objectBoundingBox" id="filter-2">
            <feOffset dx="0" dy="2" in="SourceAlpha" result="shadowOffsetOuter1"></feOffset>
            <feGaussianBlur stdDeviation="5" in="shadowOffsetOuter1" result="shadowBlurOuter1"></feGaussianBlur>
            <feColorMatrix values="0 0 0 0 0   0 0 0 0 0   0 0 0 0 0  0 0 0 0.193387681 0" type="matrix" in="shadowBlurOuter1"></feColorMatrix>
        </filter>
    </defs>
    <g id="Page-1" stroke="none" stroke-width="1" fill="none" fill-rule="evenodd">
        <g id="JS" transform="translate(10.000000, 8.000000)">
            <g id="Rectangle">
                <use fill="black" fill-opacity="1" filter="url(#filter-2)" xlink:href="#path-1"></use>
                <use fill="#F9FF71" fill-rule="evenodd" xlink:href="#path-1"></use>
            </g>
            <path d="M141.232139,167.858 C141.232139,173.999364 139.806486,178.840316 136.955139,182.381 C134.103791,185.921684 129.858167,187.692 124.218139,187.692 C120.270119,187.692 116.917486,186.673677 114.160139,184.637 C111.402792,182.600323 109.491477,180.140681 108.426139,177.258 L110.212139,176.412 C111.465478,179.232014 113.314126,181.503658 115.758139,183.227 C118.202151,184.950342 121.022123,185.812 124.218139,185.812 C126.912819,185.812 129.200129,185.357671 131.080139,184.449 C132.960148,183.540329 134.495466,182.271341 135.686139,180.642 C136.876811,179.012659 137.754136,177.085678 138.318139,174.861 C138.882142,172.636322 139.164139,170.208013 139.164139,167.576 L139.164139,119.448 L141.232139,119.448 L141.232139,167.858 Z M197.632139,170.02 C197.632139,172.840014 197.083811,175.362322 195.987139,177.587 C194.890467,179.811678 193.433481,181.691659 191.616139,183.227 C189.798796,184.762341 187.652484,185.921663 185.177139,186.705 C182.701793,187.488337 180.116819,187.88 177.422139,187.88 C173.286118,187.88 169.510489,187.143674 166.095139,185.671 C162.679788,184.198326 159.84415,182.208679 157.588139,179.702 L159.186139,178.292 C161.567484,180.861346 164.340456,182.788327 167.505139,184.073 C170.669821,185.357673 173.944122,186 177.328139,186 C179.772151,186 182.090794,185.63967 184.284139,184.919 C186.477483,184.19833 188.42013,183.16434 190.112139,181.817 C191.804147,180.46966 193.135801,178.80901 194.107139,176.835 C195.078477,174.86099 195.564139,172.589346 195.564139,170.02 C195.564139,167.450654 195.031477,165.288675 193.966139,163.534 C192.9008,161.779325 191.522147,160.27534 189.830139,159.022 C188.13813,157.76866 186.21115,156.719004 184.049139,155.873 C181.887128,155.026996 179.709483,154.259337 177.516139,153.57 C174.758792,152.692662 172.236483,151.768338 169.949139,150.797 C167.661794,149.825662 165.687814,148.635007 164.027139,147.225 C162.366464,145.814993 161.08181,144.12301 160.173139,142.149 C159.264467,140.17499 158.810139,137.778014 158.810139,134.958 C158.810139,132.200653 159.358467,129.741011 160.455139,127.579 C161.551811,125.416989 163.040129,123.599674 164.920139,122.127 C166.800148,120.654326 168.977793,119.526337 171.453139,118.743 C173.928484,117.959663 176.544792,117.568 179.302139,117.568 C182.686156,117.568 185.89779,118.210327 188.937139,119.495 C191.976487,120.779673 194.467462,122.612655 196.410139,124.994 L194.812139,126.404 C193.057463,124.210656 190.817152,122.503006 188.091139,121.281 C185.365125,120.058994 182.404155,119.448 179.208139,119.448 C176.952127,119.448 174.74315,119.76133 172.581139,120.388 C170.419128,121.01467 168.460814,121.970327 166.706139,123.255 C164.951463,124.539673 163.541477,126.153324 162.476139,128.096 C161.4108,130.038676 160.878139,132.325987 160.878139,134.958 C160.878139,137.527346 161.348134,139.704991 162.288139,141.491 C163.228143,143.277009 164.481464,144.79666 166.048139,146.05 C167.614813,147.30334 169.385129,148.337329 171.359139,149.152 C173.333149,149.966671 175.354128,150.718663 177.422139,151.408 C180.242153,152.348005 182.874126,153.303662 185.318139,154.275 C187.762151,155.246338 189.908463,156.421326 191.757139,157.8 C193.605815,159.178674 195.047134,160.85499 196.081139,162.829 C197.115144,164.80301 197.632139,167.199986 197.632139,170.02 L197.632139,170.02 Z" fill="#4A4A4A"></path>
        </g>
    </g>
</svg>