<?xml version="1.0" encoding="UTF-8" standalone="no"?>
<svg width="170px" height="170px" viewBox="0 0 170 170" version="1.1" xmlns="http://www.w3.org/2000/svg" xmlns:xlink="http://www.w3.org/1999/xlink">
    <!-- Generator: Sketch 40.1 (33804) - http://www.bohemiancoding.com/sketch -->
    <title>WW</title>
    <desc>Created with Sketch.</desc>
    <defs>
        <rect id="path-1" x="0" y="0" width="150" height="149.683362"></rect>
        <filter x="-50%" y="-50%" width="200%" height="200%" filterUnits="objectBoundingBox" id="filter-2">
            <feOffset dx="0" dy="2" in="SourceAlpha" result="shadowOffsetOuter1"></feOffset>
            <feGaussianBlur stdDeviation="5" in="shadowOffsetOuter1" result="shadowBlurOuter1"></feGaussianBlur>
            <feColorMatrix values="0 0 0 0 0   0 0 0 0 0   0 0 0 0 0  0 0 0 0.193387681 0" type="matrix" in="shadowBlurOuter1"></feColorMatrix>
        </filter>
    </defs>
    <g id="Page-1" stroke="none" stroke-width="1" fill="none" fill-rule="evenodd">
        <g id="WW" transform="translate(10.000000, 8.000000)">
            <g id="Rectangle">
                <use fill="black" fill-opacity="1" filter="url(#filter-2)" xlink:href="#path-1"></use>
                <use fill="#ADFF71" fill-rule="evenodd" xlink:href="#path-1"></use>
            </g>
            <path d="M85.53,83.3160622 L84.1275,83.3160622 L75.67125,53.9494819 L75.58875,53.9494819 L67.2975,83.3160622 L65.895,83.3160622 L57.15,53.0518135 L58.09875,53.0518135 L66.51375,82.4611399 L66.6375,82.4611399 L74.92875,53.0518135 L76.33125,53.0518135 L84.7875,82.4611399 L84.91125,82.4611399 L93.32625,53.0518135 L94.275,53.0518135 L85.53,83.3160622 Z M97.41,73.2707254 C97.41,74.4676226 97.5818733,75.6502532 97.925625,76.8186528 C98.2693767,77.9870525 98.7918715,79.0343218 99.493125,79.9604922 C100.194379,80.8866627 101.081245,81.6347122 102.15375,82.2046632 C103.226255,82.7746142 104.491243,83.0595855 105.94875,83.0595855 C107.433757,83.0595855 108.753744,82.7532414 109.90875,82.140544 C111.063756,81.5278467 112.067496,80.6373115 112.92,79.4689119 L113.58,80.0673575 C112.644995,81.3212498 111.551881,82.2759035 110.300625,82.9313472 C109.049369,83.5867908 107.598758,83.9145078 105.94875,83.9145078 C104.546243,83.9145078 103.267506,83.6509094 102.1125,83.1237047 C100.957494,82.5965 99.9606292,81.862699 99.121875,80.9222798 C98.2831208,79.9818606 97.6368773,78.8562242 97.183125,77.5453368 C96.7293727,76.2344494 96.5025,74.8095932 96.5025,73.2707254 C96.5025,71.7888527 96.7362477,70.4209907 97.20375,69.1670984 C97.6712523,67.9132062 98.3106209,66.8303154 99.121875,65.9183938 C99.9331291,65.0064721 100.888745,64.3011683 101.98875,63.8024611 C103.088756,63.303754 104.271244,63.0544041 105.53625,63.0544041 C107.021257,63.0544041 108.313744,63.3251268 109.41375,63.8665803 C110.513756,64.4080338 111.428121,65.1204619 112.156875,66.003886 C112.885629,66.8873101 113.428748,67.8918337 113.78625,69.017487 C114.143752,70.1431403 114.3225,71.2901496 114.3225,72.4585492 L114.3225,73.2707254 L97.41,73.2707254 Z M113.45625,72.4585492 C113.42875,71.1761594 113.215627,70.0077773 112.816875,68.9533679 C112.418123,67.8989585 111.875003,66.9941748 111.1875,66.2389896 C110.499997,65.4838045 109.675005,64.8996135 108.7125,64.486399 C107.749995,64.0731845 106.677506,63.8665803 105.495,63.8665803 C104.064993,63.8665803 102.841255,64.1729244 101.82375,64.7856218 C100.806245,65.3983191 99.9743782,66.1534929 99.328125,67.0511658 C98.6818718,67.9488387 98.2075015,68.8892438 97.905,69.8724093 C97.6024985,70.8555749 97.45125,71.7176129 97.45125,72.4585492 L113.45625,72.4585492 Z M122.11875,68.996114 C122.943754,67.0297829 124.119367,65.5479324 125.645625,64.5505181 C127.171883,63.5531038 128.842491,63.0544041 130.6575,63.0544041 C132.060007,63.0544041 133.345619,63.3180025 134.514375,63.8452073 C135.683131,64.372412 136.686871,65.0990886 137.525625,66.0252591 C138.364379,66.9514295 139.010623,68.0556931 139.464375,69.3380829 C139.918127,70.6204727 140.145,72.0168318 140.145,73.5272021 C140.145,75.0090748 139.911252,76.384061 139.44375,77.6522021 C138.976248,78.9203431 138.323129,80.0174824 137.484375,80.9436528 C136.645621,81.8698233 135.641881,82.5965 134.473125,83.1237047 C133.304369,83.6509094 132.032507,83.9145078 130.6575,83.9145078 C129.749995,83.9145078 128.863129,83.7862707 127.996875,83.5297927 C127.130621,83.2733148 126.326254,82.8957279 125.58375,82.3970207 C124.841246,81.8983136 124.167503,81.2856254 123.5625,80.5589378 C122.957497,79.8322503 122.476252,78.9844608 122.11875,78.015544 L121.995,78.015544 L121.995,83.3160622 L121.0875,83.3160622 L121.0875,51 L121.995,51 L121.995,68.996114 L122.11875,68.996114 Z M139.2375,73.5272021 C139.2375,72.2448122 139.038127,71.0194359 138.639375,69.8510363 C138.240623,68.6826366 137.670004,67.6567402 136.9275,66.7733161 C136.184996,65.889892 135.28438,65.1845881 134.225625,64.6573834 C133.16687,64.1301787 131.977507,63.8665803 130.6575,63.8665803 C129.392494,63.8665803 128.23063,64.1230544 127.171875,64.6360104 C126.11312,65.1489663 125.198754,65.8400216 124.42875,66.7091969 C123.658746,67.5783722 123.053752,68.5971444 122.61375,69.765544 C122.173748,70.9339437 121.95375,72.1735686 121.95375,73.484456 C121.95375,74.7953433 122.173748,76.0349683 122.61375,77.2033679 C123.053752,78.3717675 123.658746,79.3905397 124.42875,80.259715 C125.198754,81.1288904 126.11312,81.8199456 127.171875,82.3329016 C128.23063,82.8458575 129.392494,83.1023316 130.6575,83.1023316 C131.977507,83.1023316 133.16687,82.8458575 134.225625,82.3329016 C135.28438,81.8199456 136.184996,81.1288904 136.9275,80.259715 C137.670004,79.3905397 138.240623,78.3717675 138.639375,77.2033679 C139.038127,76.0349683 139.2375,74.8095919 139.2375,73.5272021 L139.2375,73.5272021 Z M42.63,141.606218 L41.2275,141.606218 L32.77125,112.239637 L32.68875,112.239637 L24.3975,141.606218 L22.995,141.606218 L14.25,111.341969 L15.19875,111.341969 L23.61375,140.751295 L23.7375,140.751295 L32.02875,111.341969 L33.43125,111.341969 L41.8875,140.751295 L42.01125,140.751295 L50.42625,111.341969 L51.375,111.341969 L42.63,141.606218 Z M73.44375,131.731865 C73.44375,133.270733 73.2031274,134.681341 72.721875,135.963731 C72.2406226,137.24612 71.5600044,138.350384 70.68,139.276554 C69.7999956,140.202725 68.7481311,140.922277 67.524375,141.435233 C66.3006189,141.948189 64.9600073,142.204663 63.5025,142.204663 C62.0449927,142.204663 60.7112561,141.948189 59.50125,141.435233 C58.2912439,140.922277 57.2462544,140.202725 56.36625,139.276554 C55.4862456,138.350384 54.8056274,137.24612 54.324375,135.963731 C53.8431226,134.681341 53.6025,133.270733 53.6025,131.731865 C53.6025,130.192997 53.8431226,128.789514 54.324375,127.521373 C54.8056274,126.253232 55.4862456,125.163217 56.36625,124.251295 C57.2462544,123.339374 58.2912439,122.626946 59.50125,122.11399 C60.7112561,121.601034 62.0449927,121.34456 63.5025,121.34456 C64.9600073,121.34456 66.3006189,121.601034 67.524375,122.11399 C68.7481311,122.626946 69.7999956,123.339374 70.68,124.251295 C71.5600044,125.163217 72.2406226,126.253232 72.721875,127.521373 C73.2031274,128.789514 73.44375,130.192997 73.44375,131.731865 L73.44375,131.731865 Z M72.53625,131.731865 C72.53625,130.420978 72.3300021,129.181353 71.9175,128.012953 C71.5049979,126.844554 70.9068789,125.825782 70.123125,124.956606 C69.3393711,124.087431 68.3906306,123.4035 67.276875,122.904793 C66.1631194,122.406086 64.905007,122.156736 63.5025,122.156736 C62.099993,122.156736 60.8487555,122.406086 59.74875,122.904793 C58.6487445,123.4035 57.7068789,124.087431 56.923125,124.956606 C56.1393711,125.825782 55.5412521,126.844554 55.12875,128.012953 C54.7162479,129.181353 54.51,130.420978 54.51,131.731865 C54.51,133.07125 54.7162479,134.325124 55.12875,135.493523 C55.5412521,136.661923 56.1393711,137.680695 56.923125,138.54987 C57.7068789,139.419046 58.6487445,140.110101 59.74875,140.623057 C60.8487555,141.136013 62.099993,141.392487 63.5025,141.392487 C64.905007,141.392487 66.1631194,141.136013 67.276875,140.623057 C68.3906306,140.110101 69.3393711,139.419046 70.123125,138.54987 C70.9068789,137.680695 71.5049979,136.661923 71.9175,135.493523 C72.3300021,134.325124 72.53625,133.07125 72.53625,131.731865 L72.53625,131.731865 Z M81.28125,127.115285 C81.8312528,125.063461 82.711244,123.588735 83.92125,122.691062 C85.131256,121.793389 86.437493,121.34456 87.84,121.34456 L88.21125,121.34456 C88.3212505,121.34456 88.4449993,121.358808 88.5825,121.387306 L88.5825,122.199482 C88.4724995,122.170984 88.3693755,122.156736 88.273125,122.156736 L88.04625,122.156736 C86.8362439,122.156736 85.8050043,122.434583 84.9525,122.990285 C84.0999957,123.545987 83.3987527,124.272664 82.84875,125.170337 C82.2987472,126.06801 81.8931263,127.065409 81.631875,128.162565 C81.3706237,129.259721 81.24,130.349736 81.24,131.432642 L81.24,141.606218 L80.3325,141.606218 L80.3325,126.901554 C80.3325,126.588081 80.3256251,126.20337 80.311875,125.747409 C80.2981249,125.291448 80.2843751,124.82837 80.270625,124.358161 C80.2568749,123.887951 80.2362501,123.439121 80.20875,123.011658 C80.1812499,122.584195 80.1537501,122.227981 80.12625,121.943005 L81.03375,121.943005 C81.0612501,122.227981 81.0818749,122.584195 81.095625,123.011658 C81.1093751,123.439121 81.1231249,123.9022 81.136875,124.400907 C81.1506251,124.899614 81.1643749,125.384065 81.178125,125.854275 C81.1918751,126.324484 81.19875,126.744817 81.19875,127.115285 L81.28125,127.115285 Z M94.23375,131.005181 L104.05125,121.943005 L105.33,121.943005 L95.30625,131.047927 L106.485,141.606218 L105.12375,141.606218 L94.23375,131.218912 L94.1925,131.218912 L94.1925,141.606218 L93.285,141.606218 L93.285,109.290155 L94.1925,109.290155 L94.1925,131.005181 L94.23375,131.005181 Z M110.15625,131.560881 C110.15625,132.757778 110.328123,133.940409 110.671875,135.108808 C111.015627,136.277208 111.538121,137.324477 112.239375,138.250648 C112.940629,139.176818 113.827495,139.924868 114.9,140.494819 C115.972505,141.06477 117.237493,141.349741 118.695,141.349741 C120.180007,141.349741 121.499994,141.043397 122.655,140.430699 C123.810006,139.818002 124.813746,138.927467 125.66625,137.759067 L126.32625,138.357513 C125.391245,139.611405 124.298131,140.566059 123.046875,141.221503 C121.795619,141.876946 120.345008,142.204663 118.695,142.204663 C117.292493,142.204663 116.013756,141.941065 114.85875,141.41386 C113.703744,140.886655 112.706879,140.152854 111.868125,139.212435 C111.029371,138.272016 110.383127,137.14638 109.929375,135.835492 C109.475623,134.524605 109.24875,133.099749 109.24875,131.560881 C109.24875,130.079008 109.482498,128.711146 109.95,127.457254 C110.417502,126.203362 111.056871,125.120471 111.868125,124.208549 C112.679379,123.296628 113.634995,122.591324 114.735,122.092617 C115.835006,121.593909 117.017494,121.34456 118.2825,121.34456 C119.767507,121.34456 121.059995,121.615282 122.16,122.156736 C123.260006,122.698189 124.174371,123.410617 124.903125,124.294041 C125.631879,125.177466 126.174998,126.181989 126.5325,127.307642 C126.890002,128.433296 127.06875,129.580305 127.06875,130.748705 L127.06875,131.560881 L110.15625,131.560881 Z M126.2025,130.748705 C126.175,129.466315 125.961877,128.297933 125.563125,127.243523 C125.164373,126.189114 124.621253,125.28433 123.93375,124.529145 C123.246247,123.77396 122.421255,123.189769 121.45875,122.776554 C120.496245,122.36334 119.423756,122.156736 118.24125,122.156736 C116.811243,122.156736 115.587505,122.46308 114.57,123.075777 C113.552495,123.688475 112.720628,124.443648 112.074375,125.341321 C111.428122,126.238994 110.953752,127.179399 110.65125,128.162565 C110.348748,129.14573 110.1975,130.007768 110.1975,130.748705 L126.2025,130.748705 Z M134.90625,127.115285 C135.456253,125.063461 136.336244,123.588735 137.54625,122.691062 C138.756256,121.793389 140.062493,121.34456 141.465,121.34456 L141.83625,121.34456 C141.946251,121.34456 142.069999,121.358808 142.2075,121.387306 L142.2075,122.199482 C142.097499,122.170984 141.994375,122.156736 141.898125,122.156736 L141.67125,122.156736 C140.461244,122.156736 139.430004,122.434583 138.5775,122.990285 C137.724996,123.545987 137.023753,124.272664 136.47375,125.170337 C135.923747,126.06801 135.518126,127.065409 135.256875,128.162565 C134.995624,129.259721 134.865,130.349736 134.865,131.432642 L134.865,141.606218 L133.9575,141.606218 L133.9575,126.901554 C133.9575,126.588081 133.950625,126.20337 133.936875,125.747409 C133.923125,125.291448 133.909375,124.82837 133.895625,124.358161 C133.881875,123.887951 133.86125,123.439121 133.83375,123.011658 C133.80625,122.584195 133.77875,122.227981 133.75125,121.943005 L134.65875,121.943005 C134.68625,122.227981 134.706875,122.584195 134.720625,123.011658 C134.734375,123.439121 134.748125,123.9022 134.761875,124.400907 C134.775625,124.899614 134.789375,125.384065 134.803125,125.854275 C134.816875,126.324484 134.82375,126.744817 134.82375,127.115285 L134.90625,127.115285 Z" id="Web-Worker" fill="#4A4A4A"></path>
        </g>
    </g>
</svg>